<?xml version="1.0" encoding="utf-8" ?><svg xmlns="http://www.w3.org/2000/svg" xmlns:xlink="http://www.w3.org/1999/xlink" width="512" height="512" viewBox="0 0 512 512"><path fill="#052147" transform="scale(0.5 0.5)" d="M607.581 447.236C626.251 447.507 642.801 449.403 657.833 461.64C685.979 484.552 687.099 538.61 663.461 564.957C649.949 580.018 636.793 584.391 617.624 585.97C597.971 586.257 582.013 585 566.237 571.554C554.451 561.508 545.186 545.115 544.561 529.385C543.605 507.145 543.69 485.455 559.724 467.873C573.019 453.294 588.64 448.227 607.581 447.236ZM611.86 558.236C636.061 558.086 643.264 538.231 642.509 517.488C642.068 505.367 642.104 491.609 632.877 482.282C627.24 476.697 620.201 473.934 612.233 474.683C601.918 475.757 595.429 476.64 588.562 485.297C579.254 497.03 579.353 511.755 580.614 525.9C582.237 544.099 591.828 558.219 611.86 558.236Z"/><path fill="#052147" transform="scale(0.5 0.5)" d="M790.491 487.058C792.203 477.049 793.958 469.085 801.689 462.044C816.149 448.874 837.721 446.402 856.32 447.238C873.359 448.004 889.282 451.551 900.895 464.812C902.751 466.932 907.822 472.583 908.121 475.265C909.32 486.034 908.529 499.457 908.892 510.284C909.49 528.107 909.945 546 909.43 563.705L908.909 565.972C898.545 570.906 888.148 576.952 877.863 582.241C876.237 582.764 874.106 583.525 872.496 583.926C872.605 576.606 872.534 569.284 872.284 561.967C870.395 565.555 868.428 569.105 865.735 572.099C849.84 589.769 815.036 591.354 797.473 575.285C789.016 567.547 785.684 558.545 784.838 547.557C781.685 506.596 828.229 505.088 857.296 499.993C861.157 499.315 869.76 499.06 872.417 496.101C874.23 491.719 872.71 485.761 871.45 481.383C860.503 470.964 846.87 470.438 833.027 475.853C827.341 478.077 824.254 482.447 822.316 488.017C812.08 487.473 800.295 487.966 790.491 487.058ZM827.823 556.423C835.605 560.284 845.236 560.538 855.269 557.658C872.935 552.588 874.423 534.784 872.78 519.004C872.718 518.868 872.656 518.732 872.594 518.596L871.436 518.515L870.673 518.763C864.152 520.851 850.179 524.429 843.492 525.297C827.289 527.399 811.343 542.117 827.823 556.423Z"/><path fill="#052147" transform="scale(0.5 0.5)" d="M358.172 450.103C369.043 449.758 381.185 449.985 392.113 450.134C386.762 460.176 382.705 473.407 377.991 484.017C375.398 489.852 373.635 496.851 371.141 502.903C359.383 531.442 347.184 559.786 335.012 588.158C329.632 600.006 325.404 613.915 318.073 624.653C315.787 628.001 298.329 629.234 293.76 629.949C284.758 631.359 275.435 632.718 266.418 633.762C267.893 623.709 266.012 612.859 267.366 602.833C268.68 600.446 276.889 601.046 278.792 601.1C285.144 601.281 288.587 600.812 294.314 598.598C298.146 593.65 301.62 586.414 303.864 580.521C305.869 575.258 304.657 573.529 302.401 568.864C301.293 566.678 300.852 564.299 299.793 562.147C295.604 553.636 293.157 544.386 289.695 535.729C278.145 507.498 267.095 479.066 256.55 450.445C267.857 450.366 279.263 450.156 290.546 450.594C294.092 450.43 295.339 454.54 296.255 457.664C302.45 478.793 310.266 499.309 317.139 520.217C318.491 524.33 322.537 539.234 324.369 541.735L325.107 541.584C325.918 535.924 356.65 451.554 358.172 450.103Z"/><path fill="#052147" transform="scale(0.5 0.5)" d="M438.949 473.556C450.109 454.499 464.13 447.424 485.646 448.067C501.096 448.528 506.155 451.789 517.371 462.945C521.785 467.336 525.876 471.665 526.524 478.167C527.278 487.629 526.906 497.547 527.01 506.997C527.23 527.046 527.539 547.259 527.392 567.276L527.446 570.93C527.485 574.873 527.562 578.381 527.236 582.309C521.458 582.46 502.559 583.106 497.591 581.868C495.959 582.577 493.454 582.448 491.596 582.497C492.026 578.021 491.777 571.031 491.748 566.279L491.638 540.427C491.597 529.072 492.242 506.34 491.39 496.046C491.14 492.975 490.459 489.956 489.365 487.076C487.462 482.171 483.494 478.781 478.665 476.829C471.708 474.018 462.039 475.85 455.405 478.784C449.456 481.416 443.79 485.818 441.272 491.969C438.914 497.728 439.544 534.072 440.151 541.769C440.472 545.831 441.845 554.534 439.929 558.266C437.66 562.687 409.218 579.958 403.798 582.225C404.524 570.196 403.997 552.168 403.993 539.697L404.048 450.9C409.755 451.106 434.499 451.269 438.879 450.407C438.453 456.222 438.896 467.349 438.949 473.556Z"/><defs><linearGradient id="gradient_0" gradientUnits="userSpaceOnUse" x1="520.32538" y1="574.58746" x2="514.02789" y2="566.79749"><stop offset="0" stop-color="#556685"/><stop offset="1" stop-color="#7F94AA"/></linearGradient></defs><path fill="url(#gradient_0)" transform="scale(0.5 0.5)" d="M526.748 559.353C526.733 562.816 526.782 563.856 527.392 567.276L527.446 570.93C527.485 574.873 527.562 578.381 527.236 582.309C521.458 582.46 502.559 583.106 497.591 581.868C498.462 581.392 501.191 580.882 502.318 580.625L497.791 580.548C498.951 579.56 500.262 578.78 501.569 578.01C502.43 576.504 502.339 577.269 501.933 575.648C504.889 572.547 521.976 562.533 526.748 559.353Z"/><path fill="#00030E" transform="scale(0.5 0.5)" d="M526.017 579.405C526.33 576.387 526.465 573.81 527.446 570.93C527.485 574.873 527.562 578.381 527.236 582.309C521.458 582.46 502.559 583.106 497.591 581.868C498.462 581.392 501.191 580.882 502.318 580.625C509.84 579.869 517.75 580.319 526.017 579.405Z"/><path fill="#A4ACB7" transform="scale(0.5 0.5)" d="M491.321 582.089C494.809 579.862 498.347 577.714 501.933 575.648C502.339 577.269 502.43 576.504 501.569 578.01C500.262 578.78 498.951 579.56 497.791 580.548C496.437 581 492.87 581.725 491.321 582.089Z"/><defs><linearGradient id="gradient_1" gradientUnits="userSpaceOnUse" x1="768.69336" y1="521.28223" x2="686.44824" y2="502.74091"><stop offset="0" stop-color="#001641"/><stop offset="1" stop-color="#163455"/></linearGradient></defs><path fill="url(#gradient_1)" transform="scale(0.5 0.5)" d="M732.236 482.678C738.045 471.177 741.462 461.081 752.782 453.688C761.86 447.759 768.759 447.463 779.142 447.396C779.77 459.121 778.654 470.098 779.25 481.784C777.673 481.529 776.088 481.333 774.496 481.196C762.252 480.227 753.482 481.844 743.904 489.82C731.265 500.098 733.209 510.178 732.792 524.494C732.357 539.445 733.683 555.82 732.659 570.523L732.608 571.179L732.635 576.033L732.664 582.591C732.301 600.146 732.726 617.831 732.357 635.311L732.318 664.373C732.53 674.868 731.93 684.367 732.015 694.403C720.359 694.454 708.703 694.432 697.048 694.339L697.122 676.623C696.787 667.801 697.073 657.389 697.101 648.401L697.129 602.33L697.029 450.962C707.961 449.331 720.282 452.183 732.03 450.128C731.83 460.035 731.709 472.885 732.236 482.678Z"/><defs><linearGradient id="gradient_2" gradientUnits="userSpaceOnUse" x1="714.68884" y1="639.10315" x2="714.30963" y2="693.1145"><stop offset="0" stop-color="#A9B1BD"/><stop offset="1" stop-color="#E1E0E1"/></linearGradient></defs><path fill="url(#gradient_2)" transform="scale(0.5 0.5)" d="M698.302 627.754C706.476 627.687 723.87 628.827 730.553 627.778C732.287 629.279 731.244 632.168 732.357 635.311L732.318 664.373C732.53 674.868 731.93 684.367 732.015 694.403C720.359 694.454 708.703 694.432 697.048 694.339L697.122 676.623C697.98 665.522 697.388 647.719 697.567 635.898L697.581 633.825C698.398 631.224 698.285 630.467 698.302 627.754Z"/><path fill="#A4ACB7" transform="scale(0.5 0.5)" d="M698.302 627.754C706.476 627.687 723.87 628.827 730.553 627.778C732.287 629.279 731.244 632.168 732.357 635.311L732.318 664.373C731.433 662.949 731.799 640.211 731.709 636.229C730.814 637.238 731.476 638.004 730.949 640.18C720.879 640.264 708.394 640.021 698.292 638.966L697.567 635.898L697.581 633.825C698.398 631.224 698.285 630.467 698.302 627.754Z"/><defs><linearGradient id="gradient_3" gradientUnits="userSpaceOnUse" x1="714.96454" y1="583.17474" x2="714.06232" y2="627.65338"><stop offset="0" stop-color="#63768A"/><stop offset="1" stop-color="#99A4B0"/></linearGradient></defs><path fill="url(#gradient_3)" transform="scale(0.5 0.5)" d="M701.132 582.468C703.652 581.896 704.464 581.749 707.036 581.653C709.017 582.854 711.725 582.321 714.219 582.563C720.367 582.639 726.516 582.649 732.664 582.591C732.301 600.146 732.726 617.831 732.357 635.311C731.244 632.168 732.287 629.279 730.553 627.778C723.87 628.827 706.476 627.687 698.302 627.754C698.285 630.467 698.398 631.224 697.581 633.825C697.149 621.629 697.681 609.118 697.443 596.888C697.359 592.581 697.286 587.615 697.692 583.391C698.969 582.545 699.237 582.856 701.066 582.824L701.132 582.468Z"/><path fill="#052147" transform="scale(0.5 0.5)" d="M701.132 582.468C703.652 581.896 704.464 581.749 707.036 581.653C709.017 582.854 711.725 582.321 714.219 582.563C710.641 582.902 704.584 583.221 701.066 582.824L701.132 582.468Z"/><defs><linearGradient id="gradient_4" gradientUnits="userSpaceOnUse" x1="723.64111" y1="580.79718" x2="715.28613" y2="569.72241"><stop offset="0" stop-color="#7285A5"/><stop offset="1" stop-color="#91A2BA"/></linearGradient></defs><path fill="url(#gradient_4)" transform="scale(0.5 0.5)" d="M732.519 560.054C732.496 563.763 732.525 567.471 732.608 571.179L732.635 576.033L732.664 582.591C726.516 582.649 720.367 582.639 714.219 582.563C711.725 582.321 709.017 582.854 707.036 581.653C704.464 581.749 703.652 581.896 701.132 582.468L699.552 582.378L699.247 581.781C702.19 579.355 707.713 576.049 711.069 573.9C718.254 569.338 725.404 564.723 732.519 560.054Z"/><path fill="#011740" transform="scale(0.5 0.5)" d="M732.635 576.033L732.664 582.591C726.516 582.649 720.367 582.639 714.219 582.563C711.725 582.321 709.017 582.854 707.036 581.653C714.432 580.754 726.451 579.754 732.635 576.033Z"/><path fill="#011740" transform="scale(0.5 0.5)" d="M163.707 582.921C161.854 576.276 158.374 570.882 156.381 564.678C148.88 541.338 139.065 519.107 130.766 496.049C125.175 480.516 118.015 467.152 113.536 450.899C116.919 449.604 145.983 450.019 151.035 450.057C151.891 453.475 154.144 459.005 155.338 462.888C161.472 482.164 168.03 501.303 175.007 520.291C176.524 524.468 182.027 542.467 183.97 544.671L184.554 545.214C189.632 544.792 208.672 546.268 215.03 546.511C210.938 557.484 206.532 568.337 201.818 579.057L200.648 583.29C190.331 582.404 174.803 583.225 163.707 582.921Z"/><defs><linearGradient id="gradient_5" gradientUnits="userSpaceOnUse" x1="212.252" y1="569.90552" x2="194.33583" y2="540.69409"><stop offset="0" stop-color="#5D728E"/><stop offset="1" stop-color="#8092AB"/></linearGradient></defs><path fill="url(#gradient_5)" transform="scale(0.5 0.5)" d="M184.554 545.214C189.632 544.792 208.672 546.268 215.03 546.511C210.938 557.484 206.532 568.337 201.818 579.057C196.214 568.741 193.708 554.858 184.554 545.214Z"/><defs><linearGradient id="gradient_6" gradientUnits="userSpaceOnUse" x1="890.38824" y1="582.43347" x2="890.81067" y2="626.16119"><stop offset="0" stop-color="#627386"/><stop offset="1" stop-color="#8F9CA8"/></linearGradient></defs><path fill="url(#gradient_6)" transform="scale(0.5 0.5)" d="M908.909 565.972L909.43 563.705C909.465 571.967 909.679 581.066 909.381 589.258C909.682 606.722 908.951 624.259 909.117 641.734C909.139 644.123 909.174 646.745 909.003 649.115C909.134 652.35 909.129 654.606 908.976 657.84C909.571 676.957 909.038 699.226 908.954 718.548C897.344 718.605 884.622 718.44 873.086 718.827C872.651 715.429 872.528 714.124 872.629 710.697C872.168 696.112 872.496 679.691 872.489 664.993L872.496 583.926C874.106 583.525 876.237 582.764 877.863 582.241C888.148 576.952 898.545 570.906 908.909 565.972Z"/><defs><linearGradient id="gradient_7" gradientUnits="userSpaceOnUse" x1="890.30237" y1="646.87598" x2="891.19611" y2="717.50385"><stop offset="0" stop-color="#B1B7BF"/><stop offset="1" stop-color="#F0EEEC"/></linearGradient></defs><path fill="url(#gradient_7)" transform="scale(0.5 0.5)" d="M873.653 647.858C883.378 647.421 899.11 646.611 908.255 648.468C908.236 651.792 907.897 654.767 908.976 657.84C909.571 676.957 909.038 699.226 908.954 718.548C897.344 718.605 884.622 718.44 873.086 718.827C872.651 715.429 872.528 714.124 872.629 710.697C873.788 707.627 873.132 661.717 873.196 654.374C873.996 652.961 873.634 649.803 873.653 647.858Z"/><defs><linearGradient id="gradient_8" gradientUnits="userSpaceOnUse" x1="890.77106" y1="623.99011" x2="890.73218" y2="648.4726"><stop offset="0" stop-color="#909BA8"/><stop offset="1" stop-color="#B0B5BE"/></linearGradient></defs><path fill="url(#gradient_8)" transform="scale(0.5 0.5)" d="M873.232 625.849C877.717 624.226 906.938 622.201 907.56 627.79C907.998 631.734 908.276 643.392 908.926 648.546L909.003 649.115C909.134 652.35 909.129 654.606 908.976 657.84C907.897 654.767 908.236 651.792 908.255 648.468C899.11 646.611 883.378 647.421 873.653 647.858C873.634 649.803 873.996 652.961 873.196 654.374C872.974 645.086 873.187 635.181 873.232 625.849Z"/><defs><linearGradient id="gradient_9" gradientUnits="userSpaceOnUse" x1="898.67786" y1="582.0141" x2="893.38837" y2="573.2348"><stop offset="0" stop-color="#889CB9"/><stop offset="1" stop-color="#A5BBD1"/></linearGradient></defs><path fill="url(#gradient_9)" transform="scale(0.5 0.5)" d="M908.909 565.972L909.43 563.705C909.465 571.967 909.679 581.066 909.381 589.258C909.053 587.722 909.021 585.049 908.947 583.404C905.401 583.092 901.294 583.049 897.691 582.93C896.093 582.671 893.871 582.563 892.052 582.304L891.638 581.618C889.06 581.592 887 581.856 884.459 582.136C882.448 582.005 880.873 582.52 877.863 582.241C888.148 576.952 898.545 570.906 908.909 565.972Z"/><path fill="#00030E" transform="scale(0.5 0.5)" d="M908.909 565.972L909.43 563.705C909.465 571.967 909.679 581.066 909.381 589.258C909.053 587.722 909.021 585.049 908.947 583.404C905.401 583.092 901.294 583.049 897.691 582.93C896.093 582.671 893.871 582.563 892.052 582.304L891.638 581.618C906.797 579.845 909.473 582.456 908.909 565.972Z"/><path fill="#052147" transform="scale(0.5 0.5)" d="M884.459 582.136C887 581.856 889.06 581.592 891.638 581.618L892.052 582.304C893.871 582.563 896.093 582.671 897.691 582.93C894.647 583.012 886.682 583.563 884.459 582.136Z"/><defs><linearGradient id="gradient_10" gradientUnits="userSpaceOnUse" x1="182.31688" y1="642.25592" x2="181.19055" y2="719.23688"><stop offset="0" stop-color="#B6BBC2"/><stop offset="1" stop-color="#F2F1EF"/></linearGradient></defs><path fill="url(#gradient_10)" transform="scale(0.5 0.5)" d="M163.707 582.921C174.803 583.225 190.331 582.404 200.648 583.29C199.673 600.495 201.142 617.988 200.454 635.212C200.55 644.097 200.56 652.984 200.482 661.869C200.471 664.721 200.56 673.639 200.065 676.03L200.192 699.206C200.277 706.075 200.678 713.713 199.993 720.436L164.014 720.455C163.613 714.406 163.488 708.342 163.64 702.282C162.893 682.206 163.624 656.635 163.669 636.242C163.445 620.013 163.102 598.92 163.707 582.921Z"/><defs><linearGradient id="gradient_11" gradientUnits="userSpaceOnUse" x1="180.79932" y1="583.30951" x2="182.63887" y2="626.73157"><stop offset="0" stop-color="#65778B"/><stop offset="1" stop-color="#9DA6B0"/></linearGradient></defs><path fill="url(#gradient_11)" transform="scale(0.5 0.5)" d="M163.707 582.921C174.803 583.225 190.331 582.404 200.648 583.29C199.673 600.495 201.142 617.988 200.454 635.212C198.814 631.566 199.769 629.262 198.721 626.104C190.832 625.555 172.692 626.064 164.75 627.409C164.788 630.171 165.32 634.212 163.669 636.242C163.445 620.013 163.102 598.92 163.707 582.921Z"/><path fill="#A4ACB7" transform="scale(0.5 0.5)" d="M164.75 627.409C172.692 626.064 190.832 625.555 198.721 626.104C199.769 629.262 198.814 631.566 200.454 635.212C200.55 644.097 200.56 652.984 200.482 661.869C200.471 664.721 200.56 673.639 200.065 676.03C199.325 664.157 200.363 651.01 199.695 638.969C198.949 640.281 199.185 640.576 199.188 642.247C194.032 642.282 167.686 642.066 164.651 644.017C163.956 647.563 164.174 656.376 164.167 660.491L164.109 690.158C164.103 692.953 164.267 700.008 163.64 702.282C162.893 682.206 163.624 656.635 163.669 636.242C165.32 634.212 164.788 630.171 164.75 627.409Z"/><path fill="#052147" transform="scale(0.5 0.5)" d="M215.549 452.542C219.989 450.387 239.724 451.597 246.658 451.227L246.061 451.026C247.771 451.058 251.316 451.042 252.805 451.724C249.5 459.628 246.235 467.282 243.201 475.316C240.361 482.838 237.87 491.035 234.798 498.388C228.193 514.196 221.133 530.518 215.03 546.511C208.672 546.268 189.632 544.792 184.554 545.214L183.97 544.671C188.143 535.77 192.523 519.522 195.953 509.779C202.64 490.785 209.459 471.728 215.549 452.542Z"/><path fill="#011740" fill-opacity="0.98823529" transform="scale(0.5 0.5)" d="M215.549 452.542C217.112 450.199 218.912 449.717 221.676 449.959C226.52 450.384 250.279 449.075 253.196 450.595L252.805 451.724C251.316 451.042 247.771 451.058 246.061 451.026L246.658 451.227C239.724 451.597 219.989 450.387 215.549 452.542Z"/></svg>